<svg width="375" height="423" viewBox="0 0 375 423" fill="none" xmlns="http://www.w3.org/2000/svg">
<g clip-path="url(#clip0_176_24586)">
<path d="M184.363 19.9753C185.165 20.4537 186.805 21.9793 187.472 22.7286C188.634 24.0375 189.373 25.6444 190.337 27.0797C198.105 21.4467 209.324 19.6503 216.002 27.838C218.182 30.5011 217.921 32.7218 219.174 34.8883C219.678 35.764 222.346 37.3799 223.274 38.9055C224.202 40.4311 223.932 41.6768 224.427 42.7872C224.671 43.3288 225.896 44.1142 226.356 45.4412C227.897 49.8285 225.32 59.8578 221.553 62.8819C220.904 63.3965 218.588 64.4888 218.453 64.895C217.66 67.2421 218.948 66.9171 219.904 67.856C222.814 70.7086 218.867 72.5592 218.462 73.9313C217.984 75.5472 219.3 76.6395 216.957 77.5422C215.776 77.9936 213.073 77.7769 214.181 79.8984C214.344 80.2053 217.011 83.9336 217.209 84.1051C219.787 86.2897 225.482 88.7812 228.717 90.9387C243.577 100.851 254.579 111.584 271.214 119.682C299.024 133.223 329.662 134.008 357.859 146.628C375.179 154.382 389.687 161.568 399.095 178.738C407.557 194.175 418.154 218.566 415.378 236.287C415.234 237.208 414.586 242.028 412.909 240.431C412.261 239.817 410.224 234.888 409.503 233.606C401.934 220.011 391.516 207.932 382.694 195.168C365.275 184.994 343.729 184.741 325.742 193.741C308.936 202.155 298.474 219.686 283.082 230.139C274.26 236.134 258.526 243.419 247.785 241.848C231.303 239.438 211.226 224.019 200.079 212.004C199.141 210.993 197.582 208.519 196.798 207.833C196.456 207.544 196.303 207.607 195.888 207.625C194.699 218.413 190.391 228.361 185.886 238.083C183.444 243.355 180.785 248.609 178.118 253.773C170.512 268.505 160.014 282.38 158.41 299.325C159.708 301.13 160.014 301.121 159.446 303.378C157.851 309.769 154.067 319.401 150.831 325.134C145.92 333.809 134.575 343.414 134.89 354.021C134.989 357.496 136.846 360.909 135.566 364.312C134.782 366.397 133.439 368.112 132.728 370.487C130.556 377.681 128.817 391.294 124.996 397.045C123.437 399.392 113.101 408.546 110.713 408.916C110.01 409.024 108.847 409.15 108.532 408.437C106.532 401.405 102.548 395.718 104.062 388.117C106 378.422 111.857 371.471 113.795 361.757C114.056 360.457 113.966 358.823 114.2 357.65C115.092 353.181 118.21 350.094 120.103 346.113C124.716 336.4 125.311 322.949 127.186 312.288C128.348 305.662 129.907 299.099 131.142 292.482C131.583 291.209 132.529 291.498 133.115 290.848C133.638 290.279 134.413 288.546 135.206 287.616C136.242 286.397 137.666 285.305 138.63 284.041C142.271 279.257 140.856 272.929 141.198 267.35C141.649 259.893 143.794 249.846 145.497 242.471C148.056 231.439 152.751 220.543 153.219 209.142C151.994 210.659 150.849 212.626 149.867 214.36C145.208 222.575 141.189 231.394 136.81 239.79C130.168 252.527 125.455 259.839 125.266 275.195C125.248 276.928 126.708 278.751 126.465 281.469C125.654 290.758 116.471 299.451 117.165 310.112C117.363 313.172 118.607 313.768 117.183 317.027C115.363 321.189 114.651 322.064 114.209 326.984C113.092 339.478 115.363 351.954 102.44 359.419C99.8901 360.891 99.016 361.08 97.421 358.48C91.9871 349.634 94.3481 337.754 96.8443 328.23C97.6192 325.26 100.079 320.042 99.7369 317.334C99.5657 315.962 98.6195 315.05 98.9259 313.47C99.1782 312.143 101.17 310.536 101.792 309.11C106.09 299.162 95.033 286.867 101.152 274.472C101.882 273.001 103.071 270.555 104.882 270.681L105.153 270.329C104.864 266.619 103.684 263.685 103.963 259.821C104.504 252.374 103.927 248.447 103.378 241.171C102.747 232.766 104.189 223.423 105.567 215.082C106.513 209.323 107.73 203.572 109.388 197.993C92.5999 206.073 74.9556 218.837 55.455 218.169C45.7407 217.835 39.6941 214.766 34.7919 206.371C31.6469 200.99 27.8531 188.108 22.3021 185.481C17.5441 183.234 13.3629 184.985 8.5688 185.599C-1.51493 186.89 -15.059 185.472 -22.926 178.431C-33.9109 168.619 -35.8933 141.167 -38.768 126.903C-40.8586 116.54 -43.9766 105.743 -53.2943 99.6771C-72.02 101.699 -84.7711 116.531 -98.3152 127.86C-101.649 130.65 -110.318 138.558 -114.509 138.377C-115.986 138.314 -117.077 137.42 -116.996 135.877C-112.22 125.928 -107.272 115.944 -101.703 106.411C-91.034 88.1403 -79.9229 83.0399 -60.6927 75.5833C-36.1186 66.0505 -19.6548 68.1268 5.47789 73.8501C33.6384 80.2595 63.0696 95.985 92.3476 88.9708C104.486 86.064 115.426 76.9374 126.528 71.4578C132.52 69.4718 138.468 67.9914 144.848 67.9914C144.028 65.9783 142.64 64.0555 142.559 61.7806C142.352 55.7323 147.407 44.9357 151.3 40.3047C152.228 39.2034 155.716 36.3417 156.103 35.4841C156.842 33.8592 155.067 31.7649 158.293 31.3225C158.843 31.2503 159.356 31.5663 159.681 31.5031C160.825 31.3045 163.411 22.223 164.979 20.2912C169.224 15.0644 179.298 16.924 184.39 19.9482L184.363 19.9753ZM188.679 28.5873C187.553 20.4537 171.377 15.245 166.331 21.3925C163.934 24.3174 163.519 29.1289 161.33 32.3246L169.35 38.1652C172.288 36.6486 174.928 34.789 178.316 34.3016C182.678 33.6787 186.85 35.2855 191.076 36.107C191.716 28.5421 178.947 26.5381 173.648 27.82C171.594 28.3165 170.026 29.833 167.953 29.7879C166.836 28.7046 171.801 26.8179 172.459 26.6284C178.064 25.0035 183.399 26.6193 188.679 28.5873ZM216.912 33.7057C214.344 23.1077 202.007 22.0244 193.69 26.836C192.96 27.2603 190.581 28.9123 190.472 29.6615C190.292 30.9344 191.238 31.0066 191.644 31.792C192.446 33.3627 192.915 35.2404 192.888 37.0097L199.727 37.8493C203.918 31.6114 210.27 31.0969 216.912 33.7057ZM170.053 42.4351C170.089 42.0199 170.053 41.6136 169.918 41.2164C169.701 40.6026 166.268 37.4792 165.52 36.8924C164.727 36.2785 160.546 33.4349 159.852 33.2454C159.158 33.0558 158.266 32.8572 157.743 33.5613C157.644 34.0307 161.654 36.7209 162.393 37.3257C163.583 38.3097 167.394 42.047 168.485 42.3629C168.998 42.5073 169.539 42.4442 170.062 42.4351H170.053ZM222.616 42.1282C221.345 36.0799 211.748 32.2975 206.405 34.1661C204.206 34.9335 202.989 36.6757 201.295 37.9305L201.457 38.5353L222.616 42.1282ZM217.813 43.3379C209 41.4873 199.971 39.9526 191.13 38.0208C185.075 36.7028 181.831 34.4099 175.387 36.7841C173.729 37.3979 172.324 38.5444 170.656 39.1221C172.134 41.5324 172.017 43.9427 168.836 44.4031C169.034 47.2196 168.971 53.0873 171.107 55.0643C173.243 57.0413 180.821 59.5779 183.759 59.8488C188.175 60.246 193.518 57.8718 196.312 54.4414C197.114 53.4574 199.826 47.4362 201.313 49.5577C201.989 50.5145 202.584 54.5407 203.161 56.0573C205.143 61.2119 208.748 63.4416 214.208 63.4958C214.506 63.4958 214.812 63.5138 215.11 63.4958C221.796 63.0534 223.589 58.1968 224.581 52.3651C224.95 50.1805 225.554 47.346 224.373 45.3329C223.274 43.4552 220.913 43.726 219.012 43.3288C218.66 43.2566 218.164 43.4011 217.813 43.3288V43.3379ZM200.394 51.7603C199.844 51.6339 199.808 51.9318 199.547 52.2658C197.898 54.3963 197.159 56.2198 194.834 58.0794C188.526 63.1076 178.568 61.8348 172.071 57.7273C166.547 54.2338 167.809 49.0882 167.205 43.3379L158.248 36.1612C152.093 40.6838 147.732 47.7071 145.506 55.0101C143.758 60.7695 143.767 64.3263 147.668 69.2281C151.958 74.6264 165.367 79.2664 171.999 81.5594C183.48 85.5223 196.573 89.8193 207.693 82.6968C208.342 82.2816 213.271 78.7519 212.406 77.9394C207.864 77.9124 203.467 76.7659 198.997 76.1791C187.427 74.6445 175.595 73.6695 164.285 70.6364C161.267 69.8239 157.013 69.0927 157.428 65.1478C157.842 61.2029 162.772 61.1667 165.709 61.3834C175.442 62.0966 185.877 65.4276 195.735 66.5109C202.611 67.2602 209.514 67.2331 216.425 66.8359L216.912 65.0124C207.864 66.3394 201.358 60.7154 200.394 51.7693V51.7603ZM161.942 65.0033C162.222 64.561 167.448 64.6513 168.359 64.7325C182.515 66.0324 197.673 71.7377 212.01 72.6946C214.037 72.83 220.237 73.1189 218.966 69.4087C218.273 67.3956 209.901 68.8851 208.063 68.9212C201.142 69.0476 192.482 67.54 185.561 66.4567C179.587 65.5269 167.214 62.1417 161.87 62.9632C158.752 63.4416 157.446 66.3574 160.744 67.8469C169.909 71.9814 186.94 73.0286 197.195 74.3646C203.593 75.1951 209.91 77.2714 216.416 76.0798L216.93 74.7979C216.786 74.1389 211.154 74.1028 210.189 73.9765C196.663 72.1981 182.2 67.4949 168.962 66.231C167.746 66.1137 162.483 66.4658 162.078 65.9061L161.942 64.9943V65.0033ZM146.623 69.8149C143.235 69.7788 139.684 69.7968 136.359 70.51C136.008 70.5822 135.161 70.5461 135.215 71.0065C137.314 71.1509 144.172 72.6133 145.722 71.7557C146.028 71.5842 146.884 70.0496 146.623 69.8058V69.8149ZM118.985 77.6415L106.685 85.0259C72.4595 102.873 40.5051 83.4551 7.00983 75.9264C-11.4004 71.7828 -34.2803 67.7657 -52.3031 74.4098C-60.2511 77.3436 -69.632 81.3066 -77.3637 84.8182C-94.4042 92.5456 -101.749 109.372 -109.949 125.297C-110.562 126.488 -115.761 136.183 -115.311 136.626C-109.399 135.723 -104.443 131.2 -99.9913 127.454C-79.8238 110.492 -72.3894 99.1445 -43.6702 96.9058C-21.6283 95.1906 -0.370498 97.2759 21.4731 100.553C45.8399 104.209 65.9262 107.901 90.8967 104.416C94.6455 103.893 94.258 103.071 96.9614 101.158C100.746 98.4765 104.909 96.4363 108.631 93.8906C113.416 90.6228 114.029 87.3368 116.471 82.4892C116.822 81.7851 119.265 77.9485 118.985 77.6415ZM146.623 73.7237C146.587 73.8411 146.353 74.0035 146.326 74.3285C146.191 75.7909 147.677 77.3436 148.714 78.4089C150.552 80.2956 154.03 82.9406 156.265 84.3849C157.41 85.1252 165.583 89.5846 166.151 89.0701C166.223 88.4291 166.475 87.5264 166.755 86.9667C166.854 86.7681 166.953 86.5605 167.052 86.3619C167.367 85.739 168.187 84.2405 168.557 83.6537C168.593 83.5995 168.971 83.3016 169.161 83.0489C169.35 82.7961 169.954 82.8051 169.764 82.1462C167.665 81.6587 165.754 80.6386 163.754 79.8803C163.033 79.6095 162.051 79.3838 161.348 79.131C160.167 78.6977 159.041 78.0117 157.743 77.9304L157.446 77.6325C157.202 77.0909 156.536 77.1992 156.247 77.0277C153.319 75.3847 150.129 74.0126 147.686 71.6203C146.93 72.1439 146.857 72.9203 146.632 73.7237H146.623ZM138.819 73.1279C133.458 72.4238 128.88 71.187 124.131 74.807C118.67 78.9685 117.237 87.2285 112.984 92.2206C109.676 96.1114 104.053 98.0432 99.8 100.977C93.9426 105.021 92.1673 107.639 85.0393 110.564C82.7595 111.503 79.5965 112.008 77.5509 113.597C76.3704 114.518 77.5959 115.673 78.1366 116.739C78.3349 117.118 78.5962 117.38 78.7404 117.641C80.3805 120.702 81.7142 122.724 83.8499 125.468C84.0752 125.757 84.3275 125.91 84.4536 126.073C84.4987 126.127 84.4266 126.389 84.5617 126.56C85.1655 127.301 88.8602 131.489 89.3918 131.805C89.8244 132.058 90.0046 132.202 90.5453 132.049C91.0409 131.914 96.2315 126.515 97.3669 125.622C105.441 119.221 114.939 122.336 122.761 113.742C124.113 112.252 126.059 108.93 127.384 107.847C127.997 107.35 128.474 107.35 129.213 107.423C129.15 108.136 129.709 108.145 129.817 108.325C132.268 112.424 135.9 117.344 137.323 121.866C137.45 122.281 137.197 122.895 137.927 123.067C137.801 124.692 139.135 132.157 139.513 134.27C140.117 137.709 141.252 141.112 141.838 144.434C141.928 144.94 142.108 145.382 142.135 145.942C142.181 146.872 141.685 149.715 142.126 150.013C145.47 150.988 148.984 151.431 152.345 152.261C152.544 152.315 152.76 152.514 152.949 152.559C153.841 152.785 158.797 154.5 159.248 154.057C161.05 146.222 164.177 139.316 163.754 131.047C163.592 127.951 162.726 124.52 162.844 121.397C163.114 114.13 167.286 100.706 171.152 94.676C173.207 91.4713 170.936 91.6248 170.062 88.7632C169.972 88.4743 169.809 88.0861 169.764 87.8604C169.629 87.1834 170.251 85.5043 169.17 85.7571C168.665 86.7772 168.187 88.6007 167.629 89.4763C165.889 92.1664 160.996 88.1312 158.653 88.1583L158.05 87.2556C155.851 86.0008 153.733 84.6106 151.742 83.0398C151.534 82.8774 151.21 82.444 150.84 82.1371C149.768 81.2344 148.534 80.4129 147.533 79.4289C147.497 79.3928 147.317 78.9415 146.93 78.5262C146.542 78.111 146.091 77.7318 145.731 77.3256C145.461 77.0187 145.325 76.5673 144.83 76.4229C144.938 75.5833 144.749 74.5813 144.83 73.7147C143.523 73.6154 141.892 73.6063 140.622 73.4168C140.027 73.3265 139.45 73.2001 138.819 73.1189V73.1279ZM119.445 77.3346V77.6325C119.643 77.5332 119.643 77.4339 119.445 77.3346ZM214.812 83.6537C214.614 83.1843 213.055 80.8191 212.604 80.9816C207.351 85.4862 200.818 88.2937 193.789 88.1764C194.447 90.3158 195.483 92.3831 196.195 94.4955C196.249 94.658 196.141 94.9378 196.195 95.1003C196.564 96.2107 196.609 97.4564 197.564 98.4314C201.016 96.8967 204.296 95.0732 207.405 92.9428C209.964 91.1825 215.506 87.6979 215.119 84.2676C215.074 83.9065 214.884 83.8252 214.821 83.6627L214.812 83.6537ZM171.855 88.4743C172.936 91.8685 174.883 92.4734 178.154 93.4573C178.713 93.6289 179.262 93.4934 179.659 93.5927C181.263 93.9719 183.317 95.3621 184.894 93.8726C185.714 93.1053 185.877 91.8956 186.264 91.1825C186.796 90.2075 186.877 89.6569 187.165 89.0791C187.21 88.9888 188.634 88.5646 187.778 87.4181C186.787 86.9758 185.39 87.1743 184.462 86.9757C182.011 86.4431 179.1 85.5765 176.649 84.8724C174.937 84.3759 173.369 83.2475 171.567 83.3919C170.909 85.3779 171.251 86.6327 171.846 88.4833L171.855 88.4743ZM216.317 87.2646C216.191 87.4813 215.876 87.9417 215.713 88.1674C215.56 88.384 214.353 89.8374 214.208 89.9728C214.154 90.0179 213.686 90.2527 213.307 90.5776C211.865 91.8234 209.514 93.4212 207.9 94.4865C207.585 94.6941 207.396 95.0281 207.297 95.0913C206.342 95.7051 204.206 96.8877 203.088 97.5016C202.899 97.6099 202.683 97.6911 202.485 97.7995C201.944 98.0974 201.241 98.4494 200.682 98.7022C200.313 98.8647 199.934 99.2438 199.781 99.307C197.168 100.318 196.744 100.282 195.573 98.1064C195.176 97.3752 195.059 96.3822 194.374 96.003C194.257 92.8976 193.068 90.9748 191.923 88.2215L189.86 88.0049C189.463 88.2486 188.436 91.3901 188.057 92.0942C187.868 92.4463 187.373 93.3129 187.156 93.6018C186.345 94.6851 185.237 95.1184 184.498 96.2197C184.84 99.2077 184.822 102.792 184.444 105.789C183.813 110.826 181.695 115.349 181.146 120.539C180.028 131.065 180.902 140.553 177.992 151.078C177.28 153.651 175.937 156.053 175.469 158.571C176.226 158.923 177.046 159.013 177.839 159.203C178.019 159.248 178.262 159.158 178.442 159.203C180.434 159.682 182.461 160.187 184.453 160.711C184.651 160.765 184.858 160.963 185.057 161.009C186.544 161.388 188.139 161.604 189.625 162.001C190.914 162.345 193.753 163.888 194.969 163.274C195.708 162.904 195.906 160.873 196.24 160.025C196.907 158.345 197.799 156.224 198.574 154.689C198.7 154.446 199.475 153.778 199.772 153.182C203.224 146.33 207.891 135.552 213.289 130.316C213.325 130.28 214.064 129.792 214.19 129.711C214.83 129.323 215.749 128.718 216.533 129.178C216.858 129.368 219.732 134.748 220.372 135.705C223.202 139.894 227.041 144.209 231.033 147.287C234.079 149.634 239.161 151.53 240.981 154.771C241.585 155.845 243.631 161.956 243.964 162.164C245.054 162.381 245.992 161.667 246.929 161.297C247.172 161.207 247.343 161.072 247.533 160.999C249.785 160.052 252.047 158.95 254.138 157.686C254.48 157.479 254.634 157.145 254.742 157.082C255.562 156.567 256.328 156.143 257.148 155.574C257.454 155.357 257.607 155.078 257.751 154.969C258.463 154.446 262.059 152.496 261.915 151.566C258.067 146.159 253.156 144.01 250.191 137.718C247.226 131.426 246.001 128.185 242.135 122.471C241.459 121.478 241.026 120.223 240.035 119.465C238.737 116.811 236.44 112.749 234.926 110.14C234.926 109.282 234.538 108.524 234.322 107.729C233.484 104.597 233.024 100.49 231.564 97.7002C229.474 93.7101 222.346 88.5826 218.3 86.6147C217.759 86.3529 217.263 85.9557 216.606 86.073C216.506 86.1452 216.434 87.0209 216.29 87.2736L216.317 87.2646ZM173.063 94.7934C172.224 96.1294 170.584 97.5738 170.656 99.307C168.98 101.284 168.404 104.371 167.656 106.827C167.016 108.912 166.646 110.772 166.151 112.848C165.754 114.527 164.349 118.346 164.349 119.916V124.43C164.349 124.972 164.898 126.642 164.952 127.292C165.042 128.303 165.187 129.287 165.25 130.298C165.853 139.009 162.862 145.608 160.744 153.769C160.077 156.332 159.6 158.011 159.239 160.693C158.671 164.935 158.761 167.653 158.942 171.823C159.041 174.035 158.761 176.265 159.248 178.44C160.293 177.339 161.005 175.84 161.816 174.54C162.123 174.044 162.204 173.087 162.249 173.024C162.276 172.988 162.88 172.979 163.15 172.591C163.871 171.57 166.773 168.059 166.755 167.31C168.223 166.551 170.224 164.204 170.359 162.498C172.297 161.929 174.721 155.944 175.469 153.931C177.073 149.616 177.902 145.111 178.469 140.535C178.713 138.54 178.938 136.527 179.073 134.513C179.316 130.921 179.181 127.265 179.37 123.681C179.461 122.002 179.452 119.483 179.668 117.966C180.019 115.475 181.389 112.351 182.074 109.842C182.885 106.89 182.894 105.996 182.975 102.918C183.029 100.733 182.975 98.5217 182.939 96.337L173.378 93.5927C173.27 93.665 173.207 94.5587 173.063 94.7934ZM413.964 237.415C415.739 223.586 411.368 210.604 406.295 198.011C397.779 176.869 391.976 166.091 371.421 155.014C358.67 148.145 344.477 142.114 330.41 138.63C302.511 131.715 282.767 129.585 257.499 113.877C249.037 108.614 242.135 102.16 234.142 96.653C233.511 96.2197 232.727 95.6329 231.943 95.5426C235.133 100.255 235.115 106.105 237.287 111.241C238.287 113.597 239.675 116.513 241.837 117.813C251.894 123.834 267.051 129.783 278.198 133.746C299.267 141.239 322.03 145.202 342.278 154.716C357.607 161.92 365.807 170.081 375.936 183.288C384.361 194.274 393.093 206.109 400.987 217.474C405.475 223.929 409.125 230.492 413.288 237.045C413.477 237.343 413.261 237.578 413.964 237.433V237.415ZM89.5541 106.529C82.0386 107.251 74.433 107.639 66.8634 107.441C35.621 106.628 5.69417 98.0974 -25.3771 98.3591C-33.7306 98.4314 -42.0932 98.5668 -50.4197 99.307C-41.7868 107.368 -38.813 119.321 -36.38 130.523C-33.8297 142.259 -31.5228 167.463 -23.5478 175.75C-16.9514 182.602 -3.50644 184.741 5.59505 184.163C11.119 183.811 17.3549 181.13 22.5364 183.748C35.3596 190.239 31.1423 213.06 51.3368 215.976C70.7563 218.774 93.3569 204.764 109.839 195.908C114.209 184.597 120.148 173.204 128.015 163.861C130.43 160.99 139.297 152.902 139.955 149.95C140.838 145.978 138.954 140.878 138.306 136.987C137.188 130.289 136.99 124.457 133.872 118.264C132.998 116.522 130.042 111.286 128.862 110.04C128.654 109.824 128.6 109.436 128.159 109.544C124.572 114.238 120.815 119.05 115.029 121.063C112.191 122.047 109.226 122.272 106.432 122.977C97.1507 125.324 93.7894 133.818 85.0574 137.366C79.984 139.424 68.5756 142.241 65.0431 146.05C62.8804 148.379 62.547 154.491 61.79 157.686C61.033 160.882 58.654 168.086 55.7253 169.684C53.4725 170.92 51.7513 167.328 50.9763 167.31C48.9758 168.176 48.0837 169.801 45.5785 169.395C43.9204 169.124 42.028 165.215 40.9016 163.852C37.5944 159.844 33.6745 158.499 37.6575 152.469C39.9014 149.065 45.164 142.764 47.9575 139.623C51.2647 135.895 55.2297 133.313 58.3206 129.241C62.2135 124.096 64.5926 119.98 69.7381 115.701C70.4049 115.15 74.0905 112.207 74.5321 112.072C75.5954 111.738 76.2262 112.388 77.2445 112.117C78.2628 111.846 80.0561 110.573 81.2456 110.086C83.2551 109.255 85.3638 108.659 87.3553 107.784C88.0582 107.477 89.1395 107.17 89.5541 106.529ZM75.1358 114.049C74.2617 113.399 66.6021 120.819 65.6739 121.866C62.8173 125.098 60.7357 129.052 58.0052 132.239C55.7614 134.875 52.7065 136.842 50.3546 139.316C46.0111 143.875 42.4426 149.77 38.1351 154.455C36.1617 158.562 39.9915 160.277 42.1001 162.724C42.9021 163.653 44.7945 167.174 45.4073 167.445C48.1107 168.664 48.9848 165.405 50.9493 165.468C53.3283 165.549 53.3013 169.278 55.5992 167.734C57.4645 166.479 59.7715 159.465 60.3392 157.136C62.4388 148.533 60.4383 145.77 69.5308 141.365C75.5504 138.449 82.5973 136.87 88.6439 133.882C88.8331 132.672 87.4724 132.329 86.6974 131.498C81.9304 126.38 77.9925 120.404 75.1358 114.04V114.049ZM365.194 172.834C346.604 153.696 322.12 149.165 297.645 141.654C278.622 135.813 260.212 129.079 242.441 120.079C244.523 122.769 246.586 125.838 248.199 128.898C250.11 132.536 251.299 137.492 253.606 140.634C255.733 143.532 259.085 145.572 261.563 148.163C262.852 149.508 262.906 149.986 264.528 151.358C265.663 152.315 270.097 166.813 271.44 169.711C272.701 172.437 274.639 174.956 275.711 177.763C276.693 180.327 276.991 183.125 278.045 185.662C279.19 188.415 281.37 190.726 282.407 193.633C283.668 197.181 285.101 203.906 282.389 206.885C281.01 208.402 273.467 214.179 271.656 214.486C267.105 215.272 267.592 211.679 264.429 210.442C262.104 209.53 260.572 211.552 259.13 209.729C257.004 207.039 260.842 195.908 261.077 192.153C261.762 181.32 249.083 173.899 243.396 165.91C242.018 163.969 243.045 164.132 242.684 162.733C242.531 162.119 241.261 160.286 240.882 159.402C240.377 158.228 240.026 156.441 239.449 155.421C238.179 153.2 233.475 151.142 231.258 149.553C224.86 144.967 219.255 137.953 215.858 130.903C212.83 133.159 210.442 136.581 208.495 139.776C205.17 145.238 200.592 153.534 197.934 159.293C197.141 160.999 196.672 162.841 196.005 164.601C199.159 171.913 199.862 180.408 199.646 188.388L196.537 205.016C204.665 215.587 215.155 224.66 226.671 231.412C243.495 241.27 253.282 242.967 271.485 234.77C287.768 227.44 295.59 217.005 307.774 205.215C325.238 188.325 345.82 181.329 369.934 187.801C373.286 188.704 376.747 190.185 379.874 191.683C378.405 188.948 376.341 186.375 374.44 183.893C371.547 180.119 368.51 176.247 365.203 172.834H365.194ZM158.338 155.583L141.225 151.503C137.774 156.784 132.908 160.846 128.916 165.667C114.831 182.71 108.938 201.108 106.117 222.863C105.315 229.056 104.666 235.249 105.18 241.487C105.45 244.7 106.261 248.149 106.387 251.408C106.532 254.865 105.829 258.025 105.766 261.338C105.684 264.976 107.352 268.361 106.405 271.99C111.56 274.888 117.579 276.449 123.5 275.944C124.041 270.085 124.5 264.127 125.987 258.431C127.97 250.857 132.178 244.845 135.665 238.038C140.387 228.821 144.713 219.216 150.102 210.37C150.741 209.323 152.589 207.129 152.922 206.28C153.228 205.504 151.615 206.073 150.949 205.558C150.047 204.863 150.498 204.051 151.57 204.069C152.417 204.087 158.41 207.012 159.059 207.662C159.708 208.311 159.96 209.16 159.834 210.045C158.834 211.047 156.653 206.38 155.031 206.741C155.166 218.35 150.543 229.011 147.903 240.078C146.109 247.598 143.577 258.323 143.01 265.869C142.514 272.513 143.974 279.78 139.793 285.495C138.765 286.903 134.791 290.27 134.638 291.796C134.521 292.915 140.504 295.398 141.649 295.813C143.469 296.481 156.112 299.767 156.806 299.099C157.77 283.184 167.358 270.383 174.504 256.797C181.191 244.069 189.842 227.612 193.086 213.728C196.285 200.052 200.421 181.825 195.663 168.294C194.78 165.784 193.78 165.251 191.374 164.466C185.967 162.697 179.929 161.677 174.432 160.079C170.81 166.605 165.051 171.552 161.474 178.151C161.032 178.964 159.41 183.071 159.167 183.207C158.924 183.342 158.275 183.36 158.068 183.234C157.239 182.719 156.995 166.308 157.112 164.159C157.275 161.279 158.032 158.463 158.32 155.601L158.338 155.583ZM263.744 153.191C262.924 152.613 259.554 155.935 258.635 156.594C254.075 159.853 250.11 161.46 245.235 163.933C244.964 164.069 244.73 163.861 244.838 164.457C244.964 165.161 250.641 171.643 251.606 172.735C254.886 176.463 260.455 181.112 261.987 185.806C264.51 193.543 259.085 201.171 260.473 208.835C265.087 205.766 267.88 213.267 271.115 213.042C271.827 212.988 274.107 211.272 274.855 210.758C276.765 209.431 282.037 205.748 282.38 203.545C283.452 196.585 278.649 191.521 276.459 185.743C274.594 180.814 273.828 178.214 271.431 173.331C268.241 166.822 266.357 159.934 263.753 153.191H263.744ZM104.171 272.956C101.422 276.621 100.629 280.891 100.953 285.432C101.476 292.735 106.64 302.439 103.639 309.462C103.071 310.789 100.944 312.441 100.719 313.47C100.386 315.005 101.395 316.287 101.539 317.641C101.828 320.196 100.242 322.308 99.5477 324.619C96.9163 333.33 93.7624 347.277 97.7454 355.736C99.5657 359.609 99.8991 359.121 103.161 356.819C115.101 348.397 111.055 334.82 113.011 322.452C113.569 318.905 116.759 316.07 116.21 312.865C116.039 311.89 115.462 311.295 115.363 310.103C115.128 307.07 117.552 298.765 118.787 295.75C120.607 291.299 124.374 286.731 124.698 281.821C124.762 280.882 124.924 278.147 123.887 277.794C120.238 277.668 116.138 277.388 112.605 276.458C109.631 275.673 107.009 274.012 104.161 272.956H104.171ZM158.041 301.211C149.128 300.056 140.315 297.934 132.511 293.385C130.267 304.994 128.627 316.738 126.411 328.356C125.248 334.459 124.122 342.701 121.211 348.117C120.049 350.284 117.805 352.423 116.877 354.608C115.552 357.749 115.813 362.073 114.867 365.531C112.731 373.33 106.414 380.913 105.549 389.002C104.891 395.203 107.784 401.558 110.145 407.119C111.082 407.39 117.931 401.92 118.985 400.963C128.645 392.233 127.492 379.09 131.619 367.878C132.34 365.91 133.971 364.294 134.232 362.064C134.476 359.961 133.521 357.442 133.394 355.239C132.728 344.019 140.243 337.636 145.965 329.295C151.769 320.846 155.571 311.15 158.041 301.22V301.211Z" fill="#151212"/>
<path d="M89.5541 106.529C89.1395 107.161 88.0492 107.468 87.3553 107.784C85.3638 108.668 83.2551 109.255 81.2456 110.086C80.0561 110.573 78.3079 111.837 77.2445 112.117C76.1812 112.397 75.5954 111.738 74.5321 112.072C74.0905 112.207 70.4049 115.15 69.7381 115.701C64.5926 119.97 62.2135 124.087 58.3206 129.241C55.2297 133.322 51.2737 135.895 47.9575 139.623C45.164 142.773 39.9014 149.074 37.6575 152.469C33.6745 158.499 37.5944 159.844 40.9016 163.852C42.028 165.215 43.9204 169.124 45.5785 169.395C48.0837 169.801 48.9758 168.176 50.9763 167.31C51.7513 167.328 53.4725 170.92 55.7253 169.684C58.645 168.077 61.033 160.828 61.79 157.686C62.547 154.545 62.8804 148.388 65.0431 146.05C68.5756 142.241 79.984 139.424 85.0574 137.366C93.7984 133.818 97.1507 125.315 106.432 122.977C109.235 122.272 112.191 122.047 115.029 121.063C120.815 119.05 124.572 114.238 128.159 109.544C128.591 109.436 128.654 109.824 128.862 110.04C130.042 111.286 132.998 116.522 133.872 118.264C136.999 124.457 137.197 130.289 138.306 136.987C138.954 140.887 140.847 145.987 139.955 149.95C139.297 152.902 130.43 160.99 128.015 163.861C120.148 173.204 114.218 184.597 109.839 195.908C93.3569 204.764 70.7563 218.783 51.3368 215.976C31.1423 213.06 35.3596 190.239 22.5364 183.748C17.3549 181.121 11.119 183.811 5.59505 184.163C-3.50644 184.75 -16.9604 182.602 -23.5478 175.75C-31.5228 167.463 -33.8297 142.259 -36.38 130.523C-38.813 119.321 -41.7958 107.368 -50.4197 99.307C-42.0932 98.5668 -33.7306 98.4314 -25.3771 98.3591C5.69417 98.0883 35.621 106.628 66.8634 107.441C74.433 107.639 82.0386 107.251 89.5541 106.529Z" fill="#A2499E"/>
<path d="M158.338 155.583C158.05 158.445 157.293 161.261 157.13 164.141C157.013 166.298 157.257 182.701 158.086 183.216C158.293 183.342 158.96 183.324 159.185 183.189C159.41 183.053 161.05 178.946 161.492 178.133C165.069 171.534 170.819 166.587 174.45 160.061C179.947 161.658 185.985 162.679 191.392 164.448C193.798 165.233 194.798 165.766 195.681 168.275C200.439 181.807 196.303 200.033 193.104 213.71C189.86 227.594 181.209 244.05 174.522 256.779C167.385 270.374 157.788 283.166 156.824 299.081C156.13 299.749 143.487 296.454 141.667 295.795C140.522 295.38 134.539 292.906 134.656 291.778C134.809 290.252 138.783 286.885 139.811 285.477C143.992 279.753 142.532 272.495 143.028 265.851C143.595 258.296 146.127 247.58 147.921 240.06C150.561 228.993 155.175 218.332 155.049 206.723C156.671 206.362 158.852 211.029 159.852 210.027C159.978 209.142 159.708 208.266 159.077 207.643C158.446 207.021 152.435 204.069 151.588 204.051C150.516 204.024 150.065 204.845 150.967 205.54C151.633 206.055 153.246 205.486 152.94 206.262C152.607 207.111 150.759 209.304 150.12 210.352C144.731 219.189 140.405 228.803 135.683 238.02C132.196 244.827 127.988 250.839 126.005 258.413C124.509 264.118 124.059 270.076 123.518 275.926C117.588 276.422 111.569 274.87 106.423 271.972C107.37 268.343 105.702 264.949 105.784 261.32C105.856 258.007 106.55 254.847 106.405 251.39C106.27 248.131 105.459 244.682 105.198 241.469C104.684 235.24 105.324 229.047 106.135 222.845C108.965 201.09 114.849 182.692 128.934 165.649C132.926 160.819 137.792 156.757 141.243 151.485L158.356 155.565L158.338 155.583Z" fill="#3F6195"/>
<path d="M118.985 77.6415C119.265 77.9485 116.822 81.7941 116.471 82.4892C114.029 87.3459 113.425 90.6228 108.631 93.8906C104.909 96.4363 100.746 98.4765 96.9614 101.158C94.258 103.071 94.6455 103.893 90.8967 104.416C65.9262 107.892 45.8399 104.209 21.4731 100.553C-0.370498 97.2759 -21.6283 95.1906 -43.6702 96.9058C-72.3894 99.1445 -79.8238 110.492 -99.9913 127.454C-104.443 131.2 -109.399 135.723 -115.311 136.626C-115.761 136.183 -110.562 126.497 -109.949 125.297C-101.749 109.372 -94.4042 92.5456 -77.3637 84.8182C-69.632 81.3066 -60.2511 77.3436 -52.3031 74.4098C-34.2803 67.7657 -11.4094 71.7919 7.00983 75.9264C40.5141 83.4551 72.4685 102.873 106.685 85.0259L118.985 77.6415Z" fill="#FF94DC"/>
<path d="M413.964 237.415C413.261 237.569 413.477 237.325 413.288 237.027C409.125 230.473 405.475 223.92 400.987 217.456C393.093 206.091 384.361 194.256 375.936 183.27C365.807 170.072 357.598 161.902 342.278 154.698C322.039 145.184 299.276 141.221 278.198 133.728C267.042 129.765 251.894 123.816 241.837 117.795C239.666 116.495 238.278 113.579 237.287 111.223C235.106 106.087 235.124 100.228 231.943 95.5246C232.718 95.6149 233.502 96.1926 234.142 96.635C242.135 102.142 249.037 108.605 257.499 113.859C282.767 129.566 302.511 131.697 330.41 138.612C344.486 142.096 358.67 148.136 371.421 154.996C391.976 166.073 397.779 176.842 406.295 197.993C411.368 210.586 415.739 223.568 413.964 237.397V237.415Z" fill="#FF94DC"/>
<path d="M158.041 301.211C155.571 311.15 151.769 320.837 145.965 329.286C140.243 337.636 132.728 344.01 133.394 355.231C133.521 357.433 134.476 359.952 134.232 362.055C133.971 364.285 132.349 365.901 131.619 367.869C127.492 379.081 128.645 392.224 118.985 400.954C117.931 401.911 111.082 407.39 110.145 407.11C107.784 401.549 104.882 395.194 105.549 388.993C106.414 380.913 112.722 373.321 114.867 365.522C115.813 362.064 115.552 357.74 116.877 354.599C117.805 352.405 120.04 350.275 121.211 348.108C124.122 342.683 125.248 334.45 126.411 328.347C128.627 316.729 130.258 304.985 132.511 293.376C140.315 297.916 149.128 300.038 158.041 301.202V301.211Z" fill="#F8CA36"/>
<path d="M200.394 51.7603C201.358 60.7064 207.873 66.3213 216.912 65.0033L216.425 66.8269C209.514 67.2331 202.62 67.2602 195.735 66.5019C185.868 65.4186 175.433 62.0875 165.709 61.3744C162.772 61.1577 157.833 61.2841 157.428 65.1387C157.022 68.9934 161.267 69.8149 164.285 70.6273C175.595 73.6605 187.427 74.6354 198.997 76.1701C203.467 76.7659 207.864 77.9124 212.406 77.9304C213.271 78.7429 208.342 82.2635 207.693 82.6878C196.573 89.8103 183.48 85.5133 171.999 81.5504C165.367 79.2574 151.958 74.6174 147.668 69.2191C143.767 64.3173 143.758 60.7695 145.506 55.0011C147.723 47.698 152.093 40.6748 158.248 36.1521L167.205 43.3288C167.8 49.0702 166.547 54.2157 172.071 57.7183C178.568 61.8257 188.526 63.0986 194.834 58.0704C197.159 56.2108 197.898 54.3873 199.547 52.2568C199.808 51.9228 199.844 51.6339 200.394 51.7513V51.7603Z" fill="#69B344"/>
<path d="M104.171 272.956C107.027 274.012 109.64 275.673 112.614 276.458C116.147 277.388 120.247 277.668 123.896 277.794C124.933 278.147 124.771 280.882 124.707 281.821C124.374 286.731 120.607 291.308 118.796 295.75C117.561 298.765 115.137 307.07 115.372 310.103C115.462 311.295 116.048 311.89 116.219 312.865C116.768 316.07 113.578 318.905 113.02 322.452C111.064 334.82 115.11 348.397 103.17 356.819C99.9081 359.121 99.5747 359.609 97.7544 355.736C93.7804 347.277 96.9254 333.33 99.5567 324.619C100.26 322.308 101.837 320.196 101.548 317.641C101.395 316.287 100.395 315.005 100.728 313.47C100.953 312.441 103.08 310.789 103.648 309.462C106.649 302.439 101.485 292.735 100.962 285.432C100.638 280.891 101.431 276.621 104.18 272.956H104.171Z" fill="#F8CA36"/>
<path d="M75.1358 114.049C77.9925 120.422 81.9304 126.389 86.6974 131.507C87.4724 132.338 88.8331 132.681 88.6439 133.891C82.5973 136.888 75.5504 138.458 69.5308 141.374C60.4383 145.779 62.4388 148.533 60.3392 157.145C59.7715 159.474 57.4645 166.488 55.5992 167.743C53.3013 169.296 53.3283 165.558 50.9493 165.477C48.9848 165.414 48.1107 168.664 45.4073 167.454C44.7945 167.183 42.9021 163.662 42.1001 162.733C39.9915 160.286 36.1617 158.571 38.1351 154.464C42.4426 149.779 46.0111 143.884 50.3546 139.325C52.7065 136.851 55.7614 134.884 58.0052 132.248C60.7267 129.061 62.8083 125.107 65.6739 121.875C66.6021 120.828 74.2617 113.408 75.1358 114.058V114.049Z" fill="#F8CA36"/>
<path d="M263.744 153.191C266.357 159.934 268.232 166.822 271.422 173.331C273.819 178.214 274.585 180.814 276.45 185.743C278.64 191.521 283.443 196.585 282.371 203.545C282.028 205.739 276.756 209.422 274.846 210.758C274.098 211.272 271.818 212.988 271.106 213.042C267.871 213.267 265.069 205.766 260.464 208.835C259.067 201.171 264.492 193.534 261.978 185.806C260.446 181.112 254.877 176.463 251.597 172.735C250.632 171.643 244.955 165.17 244.829 164.457C244.721 163.861 244.955 164.069 245.226 163.933C250.101 161.46 254.066 159.853 258.626 156.594C259.545 155.935 262.915 152.622 263.735 153.191H263.744Z" fill="#F8CA36"/>
<path d="M173.063 94.7934C173.207 94.5677 173.27 93.674 173.378 93.5927L182.939 96.337C182.975 98.5217 183.029 100.733 182.975 102.918C177.965 102.439 177.064 109.571 182.074 109.842C181.389 112.351 180.019 115.475 179.668 117.966C176.64 115.646 172.531 118.373 173.991 122.002C174.937 124.349 177.262 124.304 179.37 123.69C179.172 127.274 179.316 130.93 179.073 134.522C175.955 134.531 175.541 139.993 178.469 140.544C177.911 145.12 177.082 149.625 175.469 153.94C174.721 155.953 172.297 161.938 170.359 162.507C169.99 162.615 169.53 162.516 168.944 162.742C167.593 163.247 166.583 164.574 166.466 166.01C166.412 166.687 166.746 167.084 166.755 167.319C166.773 168.068 163.871 171.579 163.15 172.6C162.88 172.988 162.276 172.997 162.249 173.033C161.294 172.166 160.275 171.688 158.942 171.832C158.761 167.662 158.671 164.935 159.239 160.702C163.898 161.37 165.105 155.168 160.744 153.778C162.862 145.617 165.853 139.018 165.25 130.307C166.718 132.6 170.233 132.627 171.522 130.117C173.711 125.838 166.746 122.615 164.952 127.301C164.898 126.651 164.348 124.99 164.348 124.439V119.925C164.348 118.346 165.754 114.527 166.151 112.857C168.359 112.613 169.557 110.817 169.016 108.632C168.926 108.289 168.286 106.619 167.656 106.836C168.413 104.371 168.98 101.284 170.656 99.316C170.819 102.828 177.739 102.295 177.244 97.6911C176.982 95.3079 175.27 94.5767 173.063 94.8024L173.063 94.7934ZM169.386 142.99C164.592 143.748 167.043 152.433 171.972 149.517C175.478 147.44 173.459 142.349 169.386 142.99Z" fill="#BA4237"/>
<path d="M217.813 43.3379L217.362 44.8454L216.606 44.6378L216.263 43.383L215.11 43.3379C215.416 45.3239 214.578 44.8364 213.506 45.4954C211.92 46.4794 211.226 47.4633 211.568 49.4313C211.847 51.0381 213.479 51.5798 213.605 52.5276C213.659 52.8978 213.091 55.9038 212.929 56.3642C212.379 57.9259 211.541 56.1024 211.307 56.0212C210.171 55.633 209.216 55.7865 209.108 57.0593C208.937 59.1537 210.243 59.8307 211.974 60.4807C211.451 61.7264 212.289 63.6763 213.235 62.0875C213.578 61.5098 213.253 60.273 214.19 60.4897C214.109 61.5188 213.542 62.5118 214.19 63.4958C208.73 63.4416 205.125 61.2119 203.142 56.0573C202.557 54.5407 201.962 50.5145 201.295 49.5577C199.808 47.4362 197.096 53.4574 196.294 54.4414C193.491 57.8718 188.157 60.246 183.741 59.8488C180.803 59.587 173.234 57.0503 171.089 55.0643C168.944 53.0783 169.016 47.2196 168.818 44.4031C171.999 43.9427 172.116 41.5234 170.638 39.1221C172.306 38.5353 173.711 37.3979 175.369 36.7841C181.822 34.4009 185.057 36.6938 191.112 38.0208C199.962 39.9526 208.982 41.4873 217.795 43.3379L217.813 43.3379ZM185.075 38.8242C184.723 34.0398 183.777 38.1743 183.2 38.761C182.371 39.6006 180.425 38.418 179.506 41.2255C178.352 44.7371 180.731 44.8274 182.371 47.1203L181.758 51.1645C180.767 51.327 180.884 50.009 180.109 49.9278C176.46 49.5577 178.586 54.306 181.155 54.1706C179.443 58.3232 182.002 58.5669 182.66 54.4685C183.615 53.5116 183.128 57.0503 183.254 57.1767C185.561 57.7996 184.651 54.649 184.768 54.4956C184.849 54.3873 186.553 53.7644 187.156 53.1144C188.31 51.8867 188.625 49.991 188.292 48.3661C188.039 47.1564 186.805 46.4523 186.616 45.8294C186.444 45.2607 186.408 42.5435 186.85 42.2546C187.967 42.4532 188.887 42.2275 188.616 40.8463C188.427 39.8714 187.607 39.8624 187.328 39.402C186.643 38.2916 186.886 36.6848 185.057 38.8152L185.075 38.8242Z" fill="#CE6EAF"/>
<path d="M254.165 157.677C252.074 158.941 249.812 160.034 247.56 160.99C246.875 159.004 245.244 157.109 243.946 155.43C237.233 146.782 229.041 138.738 223.589 129.178C219.507 122.011 215.344 112.848 212.064 105.22C210.55 101.699 209.243 98.0703 207.91 94.4865C209.523 93.4212 211.875 91.8234 213.316 90.5776C223.95 108.759 233.313 127.996 245.334 145.319C247.947 149.083 250.921 152.604 253.57 156.323C253.886 156.766 254.309 156.964 254.165 157.677Z" fill="#FEFEFE"/>
<path d="M140.622 73.4258C141.892 73.6154 143.523 73.6244 144.83 73.7237C144.749 74.5903 144.938 75.5923 144.83 76.4319C144.722 77.2714 142.676 78.5352 141.928 79.2484C132.646 88.1042 125.365 98.8647 115.534 106.818C105.702 114.771 94.8888 120.151 83.8499 125.486C81.7142 122.751 80.3895 120.72 78.7404 117.659C93.9156 111.241 107.198 102.521 119.346 91.4623C126.212 85.2154 132.079 77.6325 140.613 73.4258H140.622Z" fill="#FEFEFE"/>
<path d="M158.644 88.1674C160.987 88.1403 165.88 92.1755 167.62 89.4853C168.187 88.6097 168.665 86.7862 169.161 85.7661C170.242 85.5133 169.62 87.1924 169.755 87.8695C169.404 88.1764 169.116 88.5645 168.926 88.9979C163.375 102.196 161.249 117.47 156.923 131.137L152.327 152.261C148.957 151.431 145.452 150.997 142.108 150.013C141.667 149.715 142.162 146.872 142.117 145.942L158.635 88.1674H158.644Z" fill="#FEFEFE"/>
<path d="M195.591 98.0974C196.753 100.273 197.186 100.309 199.799 99.298C200.241 100.201 200.484 101.6 200.565 102.602C200.944 107.359 199.961 114.202 199.817 119.293C199.556 128.212 199.989 137.294 199.205 146.384C198.97 149.074 198.051 151.954 198.61 154.662C197.844 156.197 196.952 158.327 196.276 159.997C195.942 160.846 195.744 162.868 195.005 163.247C193.789 163.861 190.95 162.308 189.661 161.974C188.175 161.577 186.58 161.361 185.093 160.981C188.256 148.424 189.689 135.552 192.266 122.877C192.933 114.843 194.87 106.863 195.176 98.7834C195.194 98.2418 194.663 97.98 195.609 98.0883L195.591 98.0974Z" fill="#FEFEFE"/>
<path d="M145.722 77.3346C146.091 77.7408 146.551 78.138 146.921 78.5352C146.921 79.104 146.686 79.3206 146.389 79.7088C143.028 84.1322 139.838 88.3028 136.999 93.1233C134.16 97.9439 132.088 102.819 129.195 107.423C128.456 107.35 127.979 107.35 127.366 107.847C126.041 108.93 124.095 112.252 122.743 113.742C114.93 122.327 105.423 119.221 97.3489 125.622C96.2225 126.515 91.0229 131.914 90.5273 132.049C89.9866 132.202 89.8064 132.067 89.3738 131.805C88.8421 131.489 85.1475 127.301 84.5437 126.56C84.4086 126.389 84.4807 126.127 84.4356 126.073C95.2943 120.774 106.685 115.024 116.12 107.404C125.555 99.7855 132.989 88.5555 142.406 79.8713C143.316 79.0317 144.614 77.8853 145.713 77.3166L145.722 77.3346Z" fill="#FEFEFE"/>
<path d="M158.041 87.2646L141.82 144.434C141.234 141.112 140.099 137.709 139.495 134.27C139.126 132.157 137.783 124.692 137.909 123.067C137.972 122.245 138.693 121.018 138.864 120.259C140.892 111.196 142.983 102.53 146.506 93.9087C147.975 90.3158 149.885 86.4341 151.733 83.0398C153.724 84.6016 155.842 85.9918 158.041 87.2556V87.2646Z" fill="#FEFEFE"/>
<path d="M188.075 92.0852C188.454 91.3811 189.472 88.2396 189.878 87.9958L191.941 88.2125C193.077 90.9658 194.275 92.8796 194.392 95.994C194.744 105.743 191.383 116.991 190.752 126.795L184.48 160.684C182.497 160.169 180.47 159.663 178.469 159.176L183.543 128.294C184.435 117.046 187.102 105.545 188.084 94.324C188.148 93.5747 188.057 92.8164 188.084 92.0671L188.075 92.0852Z" fill="#FEFEFE"/>
<path d="M215.713 88.1674C216.299 88.1674 216.551 88.5736 216.921 88.9166C222.526 94.0802 231.213 103.712 234.935 110.14C236.449 112.749 238.746 116.811 240.044 119.465C243.045 125.613 244.559 133.015 247.596 139.433C250.218 144.976 253.615 149.056 256.625 154.157C256.904 154.626 257.256 154.951 257.157 155.574C256.346 156.143 255.58 156.558 254.751 157.082C254.886 156.405 254.471 156.152 254.174 155.709C251.795 152.153 248.83 148.894 246.352 145.418C237.935 133.611 230.546 120.034 223.463 107.332C220.273 101.618 217.128 95.8405 214.199 89.9818C214.344 89.8464 215.551 88.393 215.704 88.1764L215.713 88.1674Z" fill="#FEFEFE"/>
<path d="M207.306 95.0913C211.262 105.771 216.101 116.495 221.373 126.587C227.626 138.558 236.539 146.872 244.505 157.578C245.352 158.725 246.334 160.015 246.965 161.288C246.028 161.658 245.09 162.372 244 162.155C243.667 161.947 241.621 155.827 241.017 154.762C239.197 151.521 234.115 149.625 231.069 147.278C227.068 144.191 223.229 139.885 220.408 135.696C219.768 134.739 216.894 129.359 216.569 129.169C215.785 128.709 214.866 129.314 214.227 129.702L203.115 97.5016C204.233 96.8877 206.369 95.7051 207.324 95.0913H207.306Z" fill="#FEFEFE"/>
<path d="M202.494 97.7995L213.307 130.298C207.909 135.534 203.242 146.321 199.79 153.164C198.844 153.308 199.223 152.785 199.277 152.207C200.61 138.828 200.223 126.587 200.691 113.299C200.827 109.39 201.547 105.518 201.286 101.564C201.223 100.688 200.962 99.5417 200.691 98.7022C201.25 98.4494 201.953 98.0974 202.494 97.7995Z" fill="#FEFEFE"/>
<path d="M188.679 28.5873C183.399 26.6193 178.064 25.0035 172.459 26.6284C171.801 26.8179 166.836 28.7046 167.953 29.7879C170.026 29.833 171.594 28.3255 173.648 27.82C178.947 26.5381 191.716 28.5421 191.076 36.107C186.85 35.2946 182.669 33.6787 178.316 34.3016C174.928 34.789 172.279 36.6396 169.35 38.1652L161.33 32.3246C163.519 29.1289 163.934 24.3083 166.331 21.3925C171.377 15.245 187.553 20.4537 188.679 28.5873Z" fill="#69B344"/>
<path d="M138.819 73.1279C138.991 73.8772 138.414 73.7327 138.026 73.9765C129.033 79.6637 122.166 88.2305 114.029 95.0913C103.314 104.11 91.2572 111.765 78.1457 116.766C77.605 115.701 76.3794 114.545 77.5599 113.624C79.5965 112.035 82.7685 111.521 85.0484 110.591C92.1764 107.657 93.9426 105.048 99.809 101.004C104.062 98.0703 109.676 96.1294 112.993 92.2477C117.246 87.2466 118.679 78.9956 124.14 74.834C128.889 71.2141 133.476 72.4508 138.828 73.155L138.819 73.1279Z" fill="#FEFEFE"/>
<path d="M161.942 65.0033L162.078 65.9151C162.483 66.4748 167.755 66.1227 168.962 66.2401C182.2 67.5129 196.663 72.2161 210.189 73.9855C211.154 74.1119 216.786 74.148 216.93 74.807L216.416 76.0888C209.901 77.2714 203.593 75.2042 197.195 74.3737C186.94 73.0376 169.909 71.9905 160.744 67.856C157.446 66.3665 158.752 63.4506 161.87 62.9722C167.214 62.1507 179.587 65.5269 185.561 66.4658C192.482 67.549 201.142 69.0476 208.063 68.9302C209.901 68.8941 218.273 67.4046 218.966 69.4177C220.237 73.1189 214.037 72.839 212.01 72.7036C197.673 71.7467 182.515 66.0505 168.359 64.7415C167.439 64.6603 162.222 64.57 161.942 65.0124V65.0033Z" fill="#BA4237"/>
<path d="M150.831 82.1552C146.704 91.0922 142.874 100.156 140.333 109.706L137.314 121.875C135.891 117.353 132.259 112.433 129.808 108.334C135.035 98.2779 140.36 88.2396 147.533 79.447C148.534 80.431 149.759 81.2525 150.84 82.1552H150.831Z" fill="#FEFEFE"/>
<path d="M170.053 88.7722C170.936 91.6248 173.198 91.4804 171.143 94.6851C167.277 100.724 163.105 114.148 162.835 121.406C162.717 124.52 163.583 127.951 163.745 131.056C164.168 139.334 161.041 146.24 159.239 154.067C158.788 154.509 153.832 152.785 152.94 152.568L160.834 119.095C163.907 108.993 166.115 98.5668 170.062 88.7722H170.053Z" fill="#FEFEFE"/>
<path d="M216.912 33.7057C210.279 31.0969 203.918 31.6114 199.727 37.8493L192.888 37.0097C192.915 35.2314 192.437 33.3627 191.644 31.792C191.247 31.0066 190.292 30.9344 190.472 29.6615C190.581 28.9123 192.96 27.2603 193.69 26.836C202.007 22.0244 214.344 23.1077 216.912 33.7057Z" fill="#69B344"/>
<path d="M214.208 63.4958C213.56 62.5028 214.127 61.5188 214.208 60.4897C213.271 60.273 213.596 61.5098 213.253 62.0875C212.307 63.6673 211.46 61.7264 211.992 60.4807C210.261 59.8307 208.955 59.1537 209.126 57.0593C209.234 55.7775 210.189 55.633 211.325 56.0212C211.55 56.1024 212.388 57.9259 212.947 56.3642C213.109 55.9129 213.668 52.9068 213.623 52.5276C213.497 51.5798 211.865 51.0381 211.586 49.4313C211.244 47.4543 211.929 46.4794 213.524 45.4954C214.596 44.8364 215.434 45.3148 215.128 43.3379L216.281 43.383L216.624 44.6378L217.38 44.8454L217.831 43.3379C218.182 43.4101 218.678 43.2656 219.03 43.3379L219.012 45.5586C221.418 46.3439 221.102 48.4563 218.408 48.2848L217.588 50.9749C222.138 54.4504 222.364 60.2189 215.776 60.8418L215.128 63.5048C214.83 63.5229 214.524 63.5048 214.226 63.5048L214.208 63.4958ZM215.713 53.5658L214.812 53.7644L214.217 57.4746C214.992 58.3954 215.749 53.9088 215.713 53.5658Z" fill="#F8CA36"/>
<path d="M196.186 94.4864C195.474 92.3741 194.438 90.3068 193.78 88.1673C200.809 88.2847 207.342 85.4862 212.595 80.9726C213.037 80.8101 214.605 83.1753 214.803 83.6447C213.713 84.4301 213.127 85.5855 212.1 86.5063C209.649 88.727 205.711 90.7311 202.692 92.1213C200.682 93.0421 198.339 94.0983 196.177 94.4774L196.186 94.4864Z" fill="#FEFEFE"/>
<path d="M222.616 42.1282L201.457 38.5353L201.295 37.9305C202.989 36.6757 204.206 34.9335 206.405 34.1661C211.748 32.3065 221.345 36.089 222.616 42.1282Z" fill="#69B344"/>
<path d="M242.144 122.471C246.01 128.185 247.343 131.661 250.2 137.718C253.057 143.775 258.085 146.159 261.924 151.566C262.068 152.496 258.472 154.446 257.76 154.969C254.516 149.201 250.362 143.974 247.587 137.926C245.316 132.97 243.964 127.599 242.135 122.471H242.144Z" fill="#FEFEFE"/>
<path d="M177.866 159.185C177.073 158.995 176.253 158.905 175.496 158.553C175.964 156.034 177.307 153.633 178.019 151.06C180.929 140.535 180.064 131.047 181.173 120.521C181.722 115.33 183.84 110.808 184.471 105.771C184.84 102.773 184.867 99.1897 184.525 96.2016C185.264 95.1003 186.372 94.667 187.183 93.5837L177.875 159.185H177.866Z" fill="#FEFEFE"/>
<path d="M215.11 63.4958L215.758 60.8327C222.355 60.2008 222.129 54.4414 217.57 50.9659L218.39 48.2758C221.084 48.4563 221.4 46.3439 218.994 45.5495L219.012 43.3288C220.913 43.717 223.274 43.4462 224.373 45.3329C225.554 47.355 224.95 50.1805 224.581 52.3651C223.589 58.1877 221.805 63.0534 215.11 63.4958Z" fill="#CE6EAF"/>
<path d="M234.34 107.729C233.7 107.874 233.7 107.359 233.43 107.007C228.122 100.074 223.04 92.9608 216.317 87.2736C216.452 87.0299 216.524 86.1452 216.633 86.073C217.29 85.9557 217.786 86.3529 218.327 86.6147C222.373 88.5826 229.501 93.7101 231.591 97.7002C233.051 100.481 233.502 104.588 234.349 107.729H234.34Z" fill="#FEFEFE"/>
<path d="M156.238 77.0367C156.437 77.5874 156.896 77.6957 157.437 77.6415L157.734 77.9394C160.987 80.431 164.691 82.2816 168.548 83.6537C168.178 84.2405 167.367 85.739 167.043 86.3619C161.519 84.9627 156.518 81.2615 151.958 77.9214C150.687 76.9916 148.299 74.4459 146.921 74.3195C146.848 74.0938 146.948 73.8049 146.623 73.7147C146.848 72.9112 146.912 72.1439 147.677 71.6113C150.12 74.0035 153.31 75.3757 156.238 77.0187V77.0367Z" fill="#FEFEFE"/>
<path d="M146.93 74.3285C147.38 75.7729 155.887 81.6767 157.77 82.8774C160.438 84.5835 163.565 86.6779 166.755 86.9667C166.475 87.5264 166.223 88.4382 166.151 89.0701C165.583 89.5756 157.41 85.1252 156.265 84.3849C154.03 82.9315 150.552 80.2865 148.714 78.4089C147.677 77.3436 146.191 75.7909 146.326 74.3285C146.524 74.3376 146.731 74.3105 146.93 74.3285Z" fill="#FEFEFE"/>
<path d="M184.471 86.9667C184.741 88.2847 185.832 89.2055 187.174 89.0701C186.886 89.6478 186.805 90.2075 186.273 91.1734C183.597 88.9708 179.785 89.7381 179.668 93.5837C179.271 93.4844 178.722 93.6198 178.163 93.4483C174.883 92.4734 172.936 91.8595 171.864 88.4653C174.279 89.1694 176.919 87.5174 176.667 84.8543C179.109 85.5585 182.029 86.4251 184.48 86.9577L184.471 86.9667Z" fill="#BA4237"/>
<path d="M145.722 77.3346C144.623 77.8943 143.325 79.0498 142.415 79.8893C132.998 88.5736 125.978 99.4605 116.129 107.423C106.279 115.385 95.3033 120.792 84.4446 126.091C84.3184 125.937 84.0661 125.775 83.8408 125.486C94.8798 120.16 105.946 114.563 115.525 106.818C125.104 99.0723 132.637 88.1042 141.919 79.2484C142.658 78.5443 144.713 77.2534 144.821 76.4319C145.316 76.5763 145.452 77.0277 145.722 77.3346Z" fill="#B1BFFC"/>
<path d="M214.208 89.9728C217.128 95.8315 220.273 101.609 223.472 107.323C230.555 120.016 237.944 133.602 246.361 145.409C248.839 148.885 251.804 152.135 254.183 155.7C254.48 156.152 254.895 156.405 254.76 157.073C254.661 157.136 254.498 157.47 254.156 157.677C254.3 156.964 253.877 156.757 253.561 156.323C250.903 152.595 247.938 149.083 245.325 145.319C233.304 127.996 223.941 108.759 213.307 90.5776C213.686 90.2527 214.154 90.027 214.208 89.9728Z" fill="#B1BFFC"/>
<path d="M207.9 94.4865C209.234 98.0703 210.541 101.708 212.055 105.22C215.335 112.848 219.498 122.011 223.58 129.178C229.032 138.738 237.224 146.782 243.937 155.43C245.235 157.109 246.866 159.004 247.551 160.99C247.37 161.063 247.19 161.198 246.947 161.288C246.325 160.015 245.343 158.725 244.487 157.578C236.53 146.872 227.608 138.549 221.355 126.587C216.083 116.495 211.253 105.771 207.288 95.0913C207.378 95.0281 207.576 94.6941 207.892 94.4865H207.9Z" fill="#B1BFFC"/>
<path d="M140.622 73.4258C132.088 77.6235 126.221 85.2064 119.355 91.4623C107.198 102.521 93.9246 111.25 78.7494 117.659C78.6053 117.398 78.3439 117.136 78.1457 116.757C91.2572 111.756 103.314 104.101 114.029 95.0823C122.166 88.2305 129.042 79.6546 138.026 73.9674C138.414 73.7237 138.991 73.8681 138.819 73.1189C139.45 73.2001 140.027 73.3265 140.622 73.4168V73.4258Z" fill="#B1BFFC"/>
<path d="M178.469 159.185C178.289 159.14 178.046 159.23 177.866 159.185L187.174 93.5837C187.391 93.2948 187.886 92.4373 188.075 92.0762C188.039 92.8254 188.139 93.5837 188.075 94.333C187.102 105.554 184.435 117.046 183.534 128.303L178.46 159.185H178.469Z" fill="#B1BFFC"/>
<path d="M195.591 98.0974C194.645 97.989 195.176 98.2599 195.158 98.7925C194.852 106.872 192.915 114.843 192.248 122.886C189.661 135.552 188.238 148.433 185.075 160.99C184.876 160.936 184.669 160.738 184.471 160.693L190.743 126.804C191.383 117.001 194.744 105.752 194.383 96.003C195.068 96.3822 195.194 97.3752 195.582 98.1064L195.591 98.0974Z" fill="#B1BFFC"/>
<path d="M170.053 88.7722C166.097 98.5668 163.898 108.993 160.825 119.095L152.931 152.568C152.742 152.523 152.535 152.315 152.327 152.27L156.923 131.146C161.249 117.479 163.375 102.205 168.926 89.0069C169.107 88.5736 169.404 88.1854 169.755 87.8785C169.8 88.1042 169.972 88.4923 170.053 88.7812V88.7722Z" fill="#B1BFFC"/>
<path d="M158.644 88.1674L142.126 145.942C142.099 145.391 141.919 144.949 141.829 144.434L158.05 87.2646L158.653 88.1674H158.644Z" fill="#B1BFFC"/>
<path d="M215.11 84.2585C215.497 87.6799 209.955 91.1644 207.396 92.9338C204.287 95.0732 201.007 96.8877 197.555 98.4223C196.6 97.4474 196.555 96.2016 196.186 95.0913C200.196 94.4774 204.305 92.3921 207.801 90.3249C210.649 88.6458 213.136 86.9487 215.11 84.2585Z" fill="#FEFEFE"/>
<path d="M200.691 98.7022C200.962 99.5417 201.232 100.697 201.286 101.564C201.556 105.518 200.827 109.39 200.691 113.299C200.223 126.578 200.601 138.828 199.277 152.207C199.223 152.785 198.844 153.308 199.79 153.164C199.493 153.751 198.709 154.419 198.592 154.671C198.033 151.963 198.952 149.074 199.186 146.393C199.97 137.303 199.538 128.221 199.799 119.302C199.952 114.211 200.935 107.359 200.547 102.611C200.466 101.609 200.232 100.219 199.781 99.307C199.934 99.2438 200.313 98.8737 200.682 98.7022H200.691Z" fill="#B1BFFC"/>
<path d="M165.25 130.298C165.178 129.287 165.033 128.303 164.952 127.292C166.755 122.615 173.72 125.829 171.522 130.108C170.242 132.609 166.719 132.591 165.25 130.298Z" fill="#FEFEFE"/>
<path d="M151.733 83.0579C149.894 86.4522 147.975 90.3339 146.506 93.9268C142.983 102.548 140.892 111.214 138.864 120.277C138.693 121.036 137.972 122.263 137.909 123.085C137.179 122.913 137.441 122.29 137.305 121.884L140.324 109.715C142.856 100.165 146.686 91.1012 150.822 82.1642C151.192 82.4711 151.516 82.9044 151.724 83.0669L151.733 83.0579Z" fill="#B1BFFC"/>
<path d="M170.656 99.307C170.575 97.5738 172.215 96.1294 173.063 94.7934C175.27 94.5677 176.991 95.2989 177.244 97.6821C177.739 102.286 170.819 102.819 170.656 99.307Z" fill="#FEFEFE"/>
<path d="M179.668 117.957C179.452 119.483 179.461 121.993 179.37 123.672C177.262 124.286 174.937 124.331 173.991 121.984C172.531 118.364 176.64 115.628 179.668 117.948V117.957Z" fill="#FEFEFE"/>
<path d="M170.053 42.4351C169.53 42.4351 168.989 42.5073 168.476 42.3629C167.385 42.056 163.583 38.3097 162.384 37.3257C161.654 36.7209 157.635 34.0307 157.734 33.5613C158.257 32.8662 159.122 33.0468 159.843 33.2454C160.564 33.444 164.727 36.2785 165.511 36.8924C166.295 37.5062 169.692 40.6026 169.909 41.2164C170.053 41.6136 170.071 42.0199 170.044 42.4351L170.053 42.4351Z" fill="#CE6EAF"/>
<path d="M147.524 79.447C140.351 88.2396 135.034 98.2779 129.799 108.334C129.691 108.154 129.141 108.145 129.195 107.432C132.088 102.828 134.241 97.8175 136.999 93.1324C139.756 88.4472 143.028 84.1412 146.389 79.7178C146.686 79.3206 146.911 79.113 146.921 78.5443C147.308 78.9595 147.479 79.4109 147.524 79.447Z" fill="#B1BFFC"/>
<path d="M242.144 122.471C243.973 127.599 245.325 132.97 247.596 137.926C250.362 143.974 254.525 149.201 257.769 154.969C257.625 155.078 257.481 155.357 257.166 155.574C257.265 154.942 256.904 154.617 256.634 154.157C253.615 149.056 250.227 144.976 247.605 139.433C244.568 133.015 243.045 125.613 240.053 119.465C241.053 120.223 241.486 121.478 242.153 122.471H242.144Z" fill="#B1BFFC"/>
<path d="M203.097 97.5016L214.208 129.702C214.082 129.774 213.343 130.262 213.307 130.307L202.494 97.8085C202.692 97.7002 202.899 97.6099 203.097 97.5106V97.5016Z" fill="#B1BFFC"/>
<path d="M182.975 102.918C182.894 105.996 182.885 106.881 182.074 109.842C177.064 109.58 177.965 102.439 182.975 102.918Z" fill="#FEFEFE"/>
<path d="M186.273 91.1825C185.886 91.8956 185.723 93.0962 184.903 93.8726C183.326 95.3621 181.272 93.9719 179.668 93.5927C179.785 89.7471 183.606 88.9798 186.273 91.1825Z" fill="#FEFEFE"/>
<path d="M216.317 87.2646C223.04 92.9518 228.122 100.065 233.43 106.998C233.7 107.359 233.7 107.874 234.34 107.72C234.556 108.515 234.944 109.273 234.944 110.131C231.222 103.703 222.535 94.0802 216.93 88.9076C216.56 88.5645 216.308 88.1583 215.722 88.1583C215.885 87.9326 216.2 87.4723 216.326 87.2556L216.317 87.2646Z" fill="#B1BFFC"/>
<path d="M176.667 84.8634C176.919 87.5264 174.279 89.1784 171.864 88.4743C171.278 86.6237 170.927 85.3779 171.585 83.3829C173.387 83.2385 174.955 84.3669 176.667 84.8634Z" fill="#FEFEFE"/>
<path d="M160.744 153.769C160.077 156.332 159.6 158.011 159.239 160.693C163.898 161.361 165.105 155.15 160.744 153.769Z" fill="#FEFEFE"/>
<path d="M146.93 74.3285C146.731 74.3105 146.524 74.3376 146.326 74.3285C146.353 74.0035 146.596 73.8411 146.623 73.7237C146.948 73.8049 146.857 74.1028 146.921 74.3285H146.93Z" fill="#B1BFFC"/>
<path d="M146.93 74.3285C148.308 74.4459 150.696 76.9916 151.967 77.9304C156.527 81.2615 161.528 84.9717 167.052 86.3709C166.953 86.5695 166.845 86.7771 166.755 86.9757C163.565 86.6869 160.438 84.6016 157.77 82.8864C155.887 81.6858 147.38 75.7819 146.93 74.3375V74.3285Z" fill="#B1BFFC"/>
<path d="M146.623 69.8149C146.875 70.0586 146.028 71.6023 145.722 71.7648C144.172 72.6224 137.314 71.1509 135.215 71.0155C135.161 70.5551 136.017 70.5912 136.359 70.519C139.684 69.7968 143.235 69.7878 146.623 69.8239V69.8149Z" fill="#B36EB0"/>
<path d="M215.11 84.2585C213.136 86.9577 210.649 88.6458 207.801 90.3249C204.305 92.3921 200.187 94.4774 196.186 95.0913C196.132 94.9288 196.24 94.6489 196.186 94.4864C198.348 94.1073 200.691 93.0511 202.701 92.1303C205.72 90.7401 209.667 88.727 212.109 86.5154C213.127 85.5946 213.722 84.4391 214.812 83.6537C214.875 83.8072 215.074 83.8884 215.11 84.2585Z" fill="#B1BFFC"/>
<path d="M162.249 173.024C162.204 173.087 162.123 174.044 161.816 174.54C161.014 175.831 160.293 177.339 159.248 178.44C158.761 176.256 159.041 174.035 158.942 171.823C160.275 171.688 161.294 172.166 162.249 173.024Z" fill="#FEFEFE"/>
<path d="M167.656 106.827C168.286 106.601 168.926 108.28 169.016 108.623C169.566 110.808 168.359 112.604 166.151 112.848C166.646 110.781 167.016 108.912 167.656 106.827Z" fill="#FEFEFE"/>
<path d="M179.064 134.513C178.929 136.527 178.713 138.54 178.46 140.535C175.532 139.984 175.946 134.522 179.064 134.513Z" fill="#FEFEFE"/>
<path d="M170.359 162.498C170.224 164.213 168.223 166.551 166.755 167.31C166.755 167.075 166.403 166.678 166.466 166.001C166.592 164.565 167.593 163.229 168.944 162.733C169.53 162.516 169.99 162.606 170.359 162.498Z" fill="#FEFEFE"/>
<path d="M161.348 79.1401C163.321 81.2073 166.601 81.8934 169.161 83.0489C168.971 83.2926 168.593 83.5905 168.557 83.6537C164.7 82.2725 160.996 80.4219 157.743 77.9394C159.041 78.0207 160.167 78.7158 161.348 79.1401Z" fill="#B1BFFC"/>
<path d="M161.348 79.1401C162.051 79.3928 163.033 79.6185 163.754 79.8893C165.754 80.6386 167.665 81.6677 169.764 82.1552C169.963 82.8051 169.35 82.8142 169.161 83.0579C166.601 81.8934 163.321 81.2073 161.348 79.1491V79.1401Z" fill="#FEFEFE"/>
<path d="M184.471 86.9667C185.399 87.1653 186.796 86.9667 187.787 87.4091C188.643 88.5465 187.219 88.9798 187.174 89.0701C185.832 89.1965 184.741 88.2757 184.471 86.9667Z" fill="#FEFEFE"/>
<path d="M156.238 77.0367C156.437 77.5874 156.896 77.6957 157.437 77.6415C157.193 77.0999 156.536 77.1992 156.238 77.0367Z" fill="#B1BFFC"/>
<path d="M365.194 172.834C368.501 176.238 371.547 180.11 374.431 183.893C376.332 186.375 378.396 188.948 379.865 191.683C376.738 190.185 373.277 188.704 369.925 187.801C345.811 181.329 325.229 188.325 307.765 205.215C295.581 217.005 287.759 227.44 271.476 234.77C253.273 242.958 243.486 241.27 226.662 231.412C215.146 224.669 204.656 215.587 196.528 205.016L199.637 188.388C199.862 180.408 199.15 171.913 195.996 164.601C196.663 162.85 197.141 160.999 197.925 159.293C200.583 153.534 205.161 145.238 208.486 139.776C210.433 136.581 212.821 133.159 215.849 130.903C219.246 137.944 224.851 144.967 231.249 149.553C233.466 151.142 238.161 153.2 239.44 155.421C240.026 156.432 240.378 158.219 240.873 159.402C241.252 160.295 242.513 162.119 242.675 162.733C243.027 164.132 242.009 163.978 243.387 165.91C249.073 173.899 261.753 181.32 261.068 192.153C260.833 195.899 256.995 207.039 259.121 209.729C260.563 211.552 262.086 209.53 264.42 210.442C267.583 211.679 267.105 215.272 271.647 214.486C273.458 214.17 281.001 208.402 282.38 206.885C285.092 203.906 283.659 197.181 282.398 193.633C281.361 190.726 279.181 188.424 278.036 185.662C276.991 183.134 276.693 180.327 275.702 177.763C274.621 174.956 272.683 172.437 271.431 169.711C270.088 166.813 265.654 152.315 264.519 151.358C262.897 149.986 262.834 149.508 261.554 148.163C259.085 145.572 255.733 143.532 253.597 140.634C251.29 137.492 250.101 132.536 248.19 128.898C246.586 125.838 244.514 122.769 242.432 120.079C260.203 129.088 278.613 135.813 297.636 141.654C322.111 149.165 346.595 153.696 365.185 172.834H365.194Z" fill="#A2499E"/>
<path d="M119.445 77.6325C119.643 77.5332 119.643 77.4339 119.445 77.3346V77.6325Z" fill="#CE6EAF"/>
<path d="M169.386 142.99C173.459 142.34 175.478 147.431 171.972 149.517C167.043 152.442 164.592 143.757 169.386 142.99Z" fill="#FEFEFE"/>
<path d="M185.075 38.8242C186.904 36.6938 186.652 38.3006 187.346 39.411C187.625 39.8714 188.445 39.8804 188.634 40.8554C188.905 42.2275 187.985 42.4622 186.868 42.2636C186.426 42.5525 186.462 45.2697 186.634 45.8384C186.823 46.4613 188.057 47.1654 188.31 48.3751C188.643 49.991 188.328 51.8867 187.174 53.1234C186.571 53.7734 184.867 54.3963 184.786 54.5046C184.678 54.6581 185.588 57.8086 183.272 57.1857C183.146 57.0593 183.624 53.5206 182.678 54.4775C182.02 58.5759 179.461 58.3322 181.173 54.1796C178.595 54.315 176.478 49.5577 180.127 49.9368C180.902 50.018 180.785 51.336 181.776 51.1735L182.389 47.1293C180.74 44.8364 178.37 44.7461 179.524 41.2345C180.443 38.427 182.389 39.6096 183.218 38.7701C183.795 38.1923 184.741 34.0578 185.093 38.8332L185.075 38.8242ZM183.272 41.5324C180.172 42.2365 182.894 45.6488 183.272 43.4823C183.381 42.8775 183.218 42.1553 183.272 41.5324ZM185.372 41.5234H184.471V45.1343C185.327 46.1995 185.615 41.7581 185.372 41.5234ZM184.471 47.8515H183.57L182.966 51.7603L184.119 51.2638L184.471 47.8515Z" fill="#F8CA36"/>
<path d="M215.713 53.5658C215.749 53.9088 214.992 58.3954 214.217 57.4746L214.812 53.7644L215.713 53.5658Z" fill="#CE6EAF"/>
<path d="M184.471 47.8515L184.129 51.2638L182.975 51.7603L183.57 47.8425L184.471 47.8515Z" fill="#CE6EAF"/>
<path d="M183.272 41.5324C183.218 42.1553 183.381 42.8865 183.272 43.4823C182.894 45.6488 180.172 42.2275 183.272 41.5324Z" fill="#CE6EAF"/>
<path d="M185.372 41.5234C185.615 41.7581 185.336 46.1995 184.471 45.1343V41.5234H185.372Z" fill="#CE6EAF"/>
</g>
<defs>
<clipPath id="clip0_176_24586">
<rect width="375" height="423" fill="white"/>
</clipPath>
</defs>
</svg>
