<svg width="66" height="65" viewBox="0 0 66 65" fill="none" xmlns="http://www.w3.org/2000/svg">
<g filter="url(#filter0_d_160_17914)">
<circle cx="30.5" cy="30.5" r="28.3214" transform="matrix(0.999798 -0.0200882 -0.0200882 -0.999798 4.22266 63.002)" fill="url(#paint0_linear_160_17914)" stroke="black" stroke-width="4.35714"/>
<path d="M28.3281 48.0959C28.399 47.2706 30.0784 46.1049 30.6915 45.6784C32.3036 44.5568 33.7496 43.2146 35.3496 42.0492C37.7273 40.3174 39.7393 38.1276 42.1204 36.4544C43.4578 35.5146 44.6827 33.9986 45.7944 32.7867C45.9654 32.6003 47.0434 31.8117 46.8289 31.6392C46.0739 31.0321 45.2152 30.8089 44.4084 30.2891C40.288 27.6342 36.4292 24.3944 32.9581 20.9031C31.6261 19.5633 29.1887 17.5954 28.3497 15.9254" stroke="white" stroke-width="5.44643" stroke-linecap="round"/>
</g>
<defs>
<filter id="filter0_d_160_17914" x="0.308172" y="1.39526" width="64.2973" height="62.6489" filterUnits="userSpaceOnUse" color-interpolation-filters="sRGB">
<feFlood flood-opacity="0" result="BackgroundImageFix"/>
<feColorMatrix in="SourceAlpha" type="matrix" values="0 0 0 0 0 0 0 0 0 0 0 0 0 0 0 0 0 0 127 0" result="hardAlpha"/>
<feOffset dx="-3.2973" dy="1.64865"/>
<feComposite in2="hardAlpha" operator="out"/>
<feColorMatrix type="matrix" values="0 0 0 0 0 0 0 0 0 0 0 0 0 0 0 0 0 0 0.25 0"/>
<feBlend mode="normal" in2="BackgroundImageFix" result="effect1_dropShadow_160_17914"/>
<feBlend mode="normal" in="SourceGraphic" in2="effect1_dropShadow_160_17914" result="shape"/>
</filter>
<linearGradient id="paint0_linear_160_17914" x1="30.5" y1="61" x2="15.25" y2="3.63588e-06" gradientUnits="userSpaceOnUse">
<stop offset="0.0833375" stop-color="#89C6FF"/>
<stop offset="0.366363" stop-color="#0083FF"/>
<stop offset="0.515" stop-color="#79B9F4"/>
<stop offset="0.79252" stop-color="#0083FF"/>
</linearGradient>
</defs>
</svg>
